PathFileType	4	(X/Y/Z)	10_2_51_p1_0-397.trc
DataRate	CameraRate	NumFrames	NumMarkers	Units	OrigDataRate	OrigDataStartFrame	OrigNumFrames
59.0	59.0	6	27	m	59.0	298	398
Frame#	Time	RHip			RKnee			RAnkle			RBigToe			RSmallToe			RHeel			LHip			LKnee			LAnkle			LBigToe			LSmallToe			LHeel			Neck			Head			Nose			RShoulder			RElbow			RWrist			RThumb			RIndex			RPinky			LShoulder			LElbow			LWrist			LThumb			LIndex			LPinky			
		X1	Y1	Z1	X2	Y2	Z2	X3	Y3	Z3	X4	Y4	Z4	X5	Y5	Z5	X6	Y6	Z6	X7	Y7	Z7	X8	Y8	Z8	X9	Y9	Z9	X10	Y10	Z10	X11	Y11	Z11	X12	Y12	Z12	X13	Y13	Z13	X14	Y14	Z14	X15	Y15	Z15	X16	Y16	Z16	X17	Y17	Z17	X18	Y18	Z18	X19	Y19	Z19	X20	Y20	Z20	X21	Y21	Z21	X22	Y22	Z22	X23	Y23	Z23	X24	Y24	Z24	X25	Y25	Z25	X26	Y26	Z26	X27	Y27	Z27	
298	5.0508474576271185	0.29666680771074483	0.572590301508785	1.0114600838410732	0.2970393308855456	0.6231819770547666	1.398097689992326	0.31772823393099586	0.7994142330536969	1.7797975833422361	0.27358031645980263	0.6055264778047448	1.8608458336008946	0.3470994295355283	0.645735495627083	1.8526294634430465	0.28098866242608583	0.8983457050382974	1.8533712143135217	0.0824401447696869	0.5525785540555219	1.0223785615521839	0.0824767179941615	0.6568204312442474	1.413871579571108	0.10014725318742285	0.7444624413473759	1.774649780865454	0.12341272354732229	0.6212129419702378	1.8778024200251475	0.057007895682272394	0.6379186683478708	1.8485422820049555	0.11981248277420357	0.8243418053081408	1.8295409527028699	0.11554783452436994	0.5609489244611872	0.4618765757214255	0.10732205103825519	0.4839800140367386	0.20347923389356143	0.1441043464729737	0.4423209143919548	0.37667525677372293	0.30383323849790617	0.5582875157489987	0.5013310803665191	0.38810954334399533	0.5340813806458841	0.7633375045929469	0.3936861810084447	0.5211403414568304	1.0117386736043505	0.3542139525701134	0.5009817205292474	1.1381016525119434	0.3624561170875829	0.5135618782445476	1.1567663315613879	0.4000749117071167	0.5366308221636158	1.1596729006262587	0.004512690810431972	0.5718434382571056	0.5384743293577755	-0.0014520002074415127	0.6048758424053808	0.827684745428663	-0.04765116013198089	0.4839856445945127	0.6739028923885604	-0.039956858920844135	0.494423124278949	0.5780123981226474	-0.11896281614808114	0.5493816830879997	0.5869331806341401	-0.15377071379558652	0.5608710108463674	0.633584044835576
299	5.067796610169491	0.29569292125730506	0.5708414634412267	1.003644342509643	0.29782873341371446	0.6220838198459369	1.3937888610998834	0.3177495036895236	0.7994678096087714	1.7798438558415315	0.2743870910113828	0.6085718661090144	1.8653856258339279	0.35005749415588755	0.6591278601426043	1.8573109361975129	0.27707478801929486	0.8960059581141006	1.8522668356951228	0.08549328147277617	0.5521339519275543	1.0178371664334354	0.08166617137412713	0.658094690205518	1.417706205707576	0.09960628077407499	0.7457278831251997	1.7708660465013957	0.12349329847081986	0.6212608553588881	1.8776465747541367	0.05694603859913347	0.6378721050507404	1.8484147265494357	0.1208113276004646	0.8224207051974106	1.8236559067306217	0.11554175548880911	0.5608063866424025	0.4619463436908846	0.10740472043947363	0.4841803501059488	0.20337502866938853	0.14413394960407025	0.44233845109465114	0.37668696478208047	0.3113535488524621	0.5569200050777564	0.5011347086985164	0.38809384050283025	0.5340929633030905	0.7634261237003359	0.3936604917975359	0.5211162670395968	1.011732421752411	0.35366241866540366	0.5021152344070187	1.1415854194880235	0.36248679741052436	0.5136194281356101	1.1567348059193052	0.4001873473629853	0.5365995886487626	1.1597235195159412	0.004675598737965587	0.5719607858514467	0.5389601274131185	-0.0012800633137707539	0.6051254059428737	0.8279084741319526	-0.04799913572922801	0.4838461287998603	0.673704252750655	-0.048126924875304976	0.4916358208244361	0.5757225974064948	-0.1249846299109312	0.5443410309561952	0.58361471547278	-0.15860240653546703	0.5594541078312322	0.6251283104910613
300	5.084745762711864	0.29992766864455345	0.5715102820285034	1.0068916979340266	0.2978319424406761	0.6219441944033254	1.393636309289123	0.3189193735157792	0.7975437871271501	1.7748962046093866	0.2737523545334607	0.6053604574735572	1.8609292742831438	0.34561970001762354	0.6569865592534627	1.8568120069850582	0.2877649903212795	0.8786091731122835	1.8401113226596784	0.08564744101486306	0.5522323644356585	1.0177107333734594	0.08809141842975722	0.6420365946189163	1.4095921952177122	0.09346876579712582	0.7400207391777689	1.7733210086247193	0.11673866744494832	0.6040657485193651	1.87214230903524	0.05708832221603877	0.6367509114104823	1.8476916024438814	0.11675071786807932	0.8176652758247763	1.8365716099258633	0.11561526278406847	0.5606355805853813	0.46182063899986925	0.10712836017849811	0.48378779677965394	0.2029091440403262	0.13864514454458554	0.4553663932207939	0.3756541587841563	0.3078797079463761	0.5415749969677625	0.4984738255037354	0.3920064235258719	0.5354532068135838	0.763405180951078	0.3962964792960064	0.5347890371930618	1.0173130121545675	0.3538219414360577	0.5011736897802518	1.145240863622413	0.3623650367701048	0.5135325109276533	1.1572612518701142	0.40010909863753413	0.5366434248058096	1.1597928535754305	0.004483206904939066	0.5715475612278239	0.5382362089636237	-0.0014574780757920728	0.6050573608250591	0.8274777451249083	-0.05406869576022095	0.49416301661146617	0.6702058723534634	-0.061730411956712895	0.5039126387967255	0.5772323284812181	-0.12669939707389555	0.5310062670314788	0.5843912590761434	-0.1654718328480732	0.572354420296311	0.6251314132902993
301	5.101694915254237	0.2957401699279638	0.5706934612102066	1.0034891764008305	0.29784585288016546	0.6219774792197447	1.3936146325887435	0.3189524210204597	0.7977741305449515	1.7749842827140425	0.273819128790135	0.6054982470196866	1.8612674276338128	0.3456858905136703	0.6573005189592099	1.8570485558096836	0.28682069243280806	0.880924091892289	1.8468497323849067	0.08532181408519182	0.5528122652323691	1.014277079995163	0.08814749681179415	0.6420500588987751	1.4095320698382157	0.09450124312304371	0.7384538838053362	1.7680827037581885	0.11679203131049248	0.6045360412963208	1.8722158373168971	0.057066444796013104	0.6370182916630569	1.8478714075729705	0.11657155623800318	0.8177572848796142	1.8364161260214822	0.11560342441627171	0.5607380243636898	0.46180622834694435	0.11235027716952582	0.4711043369654197	0.204843668286263	0.1383717381323479	0.4531829441961848	0.3721669939702342	0.307950442684002	0.5417869322968346	0.4983653198495717	0.3919670849439348	0.5354789074628928	0.7633308554708526	0.39739659075992934	0.5359434622677532	1.0171078299900478	0.3538255602822942	0.5011968938838224	1.145309294652215	0.3623492733259836	0.513496329752404	1.157335716005403	0.4000830934948047	0.5360520082234518	1.1596689511356406	0.00468466817372678	0.5712074004732755	0.5385038738220255	-0.0015730188044032617	0.6053604465660952	0.8274637235792273	-0.05412504328228844	0.493989658999614	0.6701702538994598	-0.05552468269485876	0.49040509169216523	0.5778919086356132	-0.12644252825648455	0.5304913877813459	0.5844413013111982	-0.16663930279232297	0.557829891381462	0.62565470497589
302	5.11864406779661	0.2957805597701182	0.5705355554373827	1.00339529533849	0.2979188575724993	0.6219496187546384	1.3936147520189461	0.3189379507201203	0.7977018733204767	1.7749468247452618	0.273757682773187	0.605257387498936	1.8610553288688902	0.3456369390074183	0.657080096643264	1.856944711686098	0.2866419720697838	0.8807727549050791	1.8464528565393654	0.08536147717573851	0.5527403572887348	1.0142200835582407	0.08822814698592438	0.6422260815787255	1.4094954124923496	0.09330916536036056	0.7400509927361766	1.7733557905838044	0.11908508902449984	0.6189284694554753	1.877501935395821	0.05708210560858517	0.637232781090622	1.8481446803525514	0.11584611744679306	0.819356796535941	1.8325481899123357	0.11541908147987515	0.5607497221065012	0.4578778084162636	0.1124799893066886	0.4710485365838139	0.20487186294757434	0.13622777893679952	0.4408313356132953	0.37342498019517656	0.3079516714965345	0.5413922088745587	0.498510837079514	0.39203397916014937	0.535373859439673	0.7634419074674674	0.3962045249850132	0.5346467806305958	1.0173062727849338	0.3494251663350375	0.51422378957457	1.1477897709283875	0.3623360965250728	0.5135179408537236	1.1573826108097247	0.4000821299521472	0.5358515015037213	1.1596225792344401	0.004756659589174824	0.5701684788715558	0.5381972840473528	-0.0010450881274275212	0.6043961612399933	0.823498246171861	-0.05456834407040658	0.49715557699490776	0.6774657910312467	-0.06146164201104	0.5076352502456527	0.5809804885891505	-0.13295750618773874	0.5441407978560266	0.5871521761101022	-0.1762642734208957	0.5414582116556765	0.6335504129459444
303	5.135593220338983	0.2995471442280867	0.5721663312024373	1.0035169300216242	0.3019553287835179	0.6234402602960799	1.393769567263359	0.317809521453448	0.7992650158766947	1.7796765561274774	0.2781717538609189	0.608018766531809	1.8617475558148548	0.3455589131615721	0.6574069685668206	1.8569003295043518	0.2863535200353776	0.8803866887773782	1.8460937077687807	0.08522911744326056	0.5529449108258983	1.0143547454155954	0.08815477766397925	0.6423793171088394	1.4097205147095409	0.09325374768961812	0.740048379755734	1.7734234618136007	0.11682416852013361	0.6045140753733659	1.8722063700279026	0.05692905321925209	0.637244861248515	1.8481376060165036	0.11579628719905058	0.8190398417008358	1.8321278339890923	0.11544301907000465	0.5605778835543874	0.4579986207950723	0.11263032044788521	0.4707255983781005	0.20519151693445828	0.13620050079575963	0.4406794706232681	0.3733273614836588	0.30782589314193354	0.542315810789183	0.502345226891497	0.39209464253484644	0.5354295976468547	0.7634212925928563	0.39692239621553344	0.5368908830169429	1.0211308457694492	0.35379792033629853	0.5009474929035206	1.145133433239577	0.3623440297420983	0.5133542402205283	1.1572847753556874	0.3968030561007028	0.5236320578099833	1.1578297137463844	0.004953153314610327	0.5700258081539277	0.5385256387945226	-0.001106004541255278	0.6045646820952874	0.8233078145546172	-0.06526176568770388	0.506146130216518	0.6738481115312901	-0.06636100936155094	0.5050674407387309	0.5849688186809854	-0.14050302241837762	0.5482732819658188	0.5972862091933357	-0.17329883914481722	0.5253644554592012	0.6336454160284551
